<svg xmlns="http://www.w3.org/2000/svg" xmlns:xlink="http://www.w3.org/1999/xlink" width="800" height="434.2"><rect width="800" height="434.2" rx="0" ry="0" class="a"/><svg height="434.2" viewBox="0 0 80 43.42" width="800" xmlns="http://www.w3.org/2000/svg" xmlns:xlink="http://www.w3.org/1999/xlink"><style>@keyframes h{0%{transform:translateX(0)}.04%{transform:translateX(-80px)}4.68%{transform:translateX(-160px)}5.42%{transform:translateX(-240px)}6.26%{transform:translateX(-320px)}6.96%{transform:translateX(-400px)}7.76%{transform:translateX(-480px)}8.63%{transform:translateX(-560px)}9.34%{transform:translateX(-640px)}10.35%{transform:translateX(-720px)}12.76%{transform:translateX(-800px)}13.53%{transform:translateX(-880px)}15.95%{transform:translateX(-960px)}16.88%{transform:translateX(-1040px)}18.08%{transform:translateX(-1120px)}19%{transform:translateX(-1200px)}19.68%{transform:translateX(-1280px)}20.7%{transform:translateX(-1360px)}22.76%{transform:translateX(-1440px)}24.75%{transform:translateX(-1520px)}26.04%{transform:translateX(-1600px)}26.95%{transform:translateX(-1680px)}27.68%{transform:translateX(-1760px)}28.46%{transform:translateX(-1840px)}28.98%{transform:translateX(-1920px)}29.92%{transform:translateX(-2000px)}31.59%{transform:translateX(-2080px)}36.46%{transform:translateX(-2160px)}37.73%{transform:translateX(-2240px)}39.61%{transform:translateX(-2320px)}40.73%{transform:translateX(-2400px)}43.42%{transform:translateX(-2480px)}43.52%{transform:translateX(-2560px)}48.4%{transform:translateX(-2640px)}50.34%{transform:translateX(-2720px)}57.19%{transform:translateX(-3120px)}57.2%{transform:translateX(-3920px)}62.11%{transform:translateX(-4000px)}62.13%{transform:translateX(-4080px)}67.59%{transform:translateX(-4160px)}69.42%{transform:translateX(-4240px)}69.44%{transform:translateX(-4400px)}78.16%{transform:translateX(-4560px)}80.44%{transform:translateX(-4640px)}84.38%{transform:translateX(-4720px)}84.4%{transform:translateX(-4800px)}93.11%{transform:translateX(-4880px)}95.11%{transform:translateX(-5040px)}95.12%{transform:translateX(-5120px)}to{transform:translateX(-5200px)}}.a{fill:#282d35}.c,.d,.e{white-space:pre}.c{fill:#a8cc8c;font-weight:700}.d,.e{fill:#b9c0cb}.e{fill:#71bef2;font-weight:700}</style><g font-family="Monaco,Consolas,Menlo,'Bitstream Vera Sans Mono','Powerline Symbols',monospace" font-size="1.67"><defs><symbol id="1"><text y="1.67" class="c">yasaman@Yasaman</text><text x="15.03" y="1.67" class="d">:</text><text x="16.032" y="1.67" class="e">/mnt/d/minimal</text><text x="31.062" y="1.67" class="e">memory</text><text x="38.076" y="1.67" class="e">logger</text><text x="44.088" y="1.67" class="d">$</text></symbol><symbol id="2"><text y="1.67" class="c">yasaman@Yasaman</text><text x="15.03" y="1.67" class="d">:</text><text x="16.032" y="1.67" class="e">/mnt/d/minimal</text><text x="31.062" y="1.67" class="e">memory</text><text x="38.076" y="1.67" class="e">logger</text><text x="44.088" y="1.67" class="d">$</text><text x="46.092" y="1.67" class="d">python</text></symbol><symbol id="3"><text y="1.67" class="c">yasaman@Yasaman</text><text x="15.03" y="1.67" class="d">:</text><text x="16.032" y="1.67" class="e">/mnt/d/minimal</text><text x="31.062" y="1.67" class="e">memory</text><text x="38.076" y="1.67" class="e">logger</text><text x="44.088" y="1.67" class="d">$</text><text x="46.092" y="1.67" class="d">python</text><text x="53.106" y="1.67" class="d">-m</text></symbol><symbol id="4"><text y="1.67" class="c">yasaman@Yasaman</text><text x="15.03" y="1.67" class="d">:</text><text x="16.032" y="1.67" class="e">/mnt/d/minimal</text><text x="31.062" y="1.67" class="e">memory</text><text x="38.076" y="1.67" class="e">logger</text><text x="44.088" y="1.67" class="d">$</text><text x="46.092" y="1.67" class="d">python</text><text x="53.106" y="1.67" class="d">-m</text><text x="56.112" y="1.67" class="d">memory_journal.main</text></symbol><symbol id="5"><text x="4.008" y="1.67" class="d">1.</text><text x="7.014" y="1.67" class="d">Add</text><text x="11.022" y="1.67" class="d">Memory/Emotion</text></symbol><symbol id="6"><text x="4.008" y="1.67" class="d">2.</text><text x="7.014" y="1.67" class="d">Show</text><text x="12.024" y="1.67" class="d">All</text></symbol><symbol id="7"><text x="4.008" y="1.67" class="d">3.</text><text x="7.014" y="1.67" class="d">Generate</text><text x="16.032" y="1.67" class="d">Simple</text><text x="23.046" y="1.67" class="d">Report</text></symbol><symbol id="8"><text x="4.008" y="1.67" class="d">4.</text><text x="7.014" y="1.67" class="d">Exit</text></symbol><symbol id="9"><text y="1.67" class="d">Choose:</text></symbol><symbol id="10"><text y="1.67" class="d">Choose:</text><text x="8.016" y="1.67" class="d">1</text></symbol><symbol id="11"><text y="1.67" class="d">--Write</text><text x="8.016" y="1.67" class="d">your</text><text x="13.026" y="1.67" class="d">memory--</text></symbol><symbol id="12"><text x="1.002" y="1.67" class="d">Today,</text><text x="8.016" y="1.67" class="d">I</text><text x="10.02" y="1.67" class="d">finally</text><text x="18.036" y="1.67" class="d">completed</text><text x="28.056" y="1.67" class="d">a</text><text x="30.06" y="1.67" class="d">project</text><text x="38.076" y="1.67" class="d">I</text><text x="40.08" y="1.67" class="d">had</text><text x="44.088" y="1.67" class="d">been</text><text x="49.098" y="1.67" class="d">working</text><text x="57.114" y="1.67" class="d">on</text><text x="60.12" y="1.67" class="d">for</text><text x="64.128" y="1.67" class="d">a</text><text x="66.132" y="1.67" class="d">while.</text><text x="73.146" y="1.67" class="d">I</text><text x="75.15" y="1.67" class="d">felt</text></symbol><symbol id="13"><text y="1.67" class="d">that</text><text x="5.01" y="1.67" class="d">all</text><text x="9.018" y="1.67" class="d">the</text><text x="13.026" y="1.67" class="d">fatigue</text><text x="21.042" y="1.67" class="d">and</text><text x="25.05" y="1.67" class="d">worries</text><text x="33.066" y="1.67" class="d">were</text><text x="38.076" y="1.67" class="d">worth</text><text x="44.088" y="1.67" class="d">it.</text><text x="48.096" y="1.67" class="d">I</text><text x="50.1" y="1.67" class="d">wrote</text><text x="56.112" y="1.67" class="d">it</text><text x="59.118" y="1.67" class="d">down</text><text x="64.128" y="1.67" class="d">to</text><text x="67.134" y="1.67" class="d">remind</text><text x="74.148" y="1.67" class="d">myself</text></symbol><symbol id="14"><text x="1.002" y="1.67" class="d">that</text><text x="6.012" y="1.67" class="d">even</text><text x="11.022" y="1.67" class="d">when</text><text x="16.032" y="1.67" class="d">I</text><text x="18.036" y="1.67" class="d">feel</text><text x="23.046" y="1.67" class="d">overwhelmed,</text><text x="36.072" y="1.67" class="d">persistence</text><text x="48.096" y="1.67" class="d">and</text><text x="52.104" y="1.67" class="d">effort</text><text x="59.118" y="1.67" class="d">pay</text><text x="63.126" y="1.67" class="d">off.</text></symbol><symbol id="15"><text y="1.67" class="d">--memory</text><text x="9.018" y="1.67" class="d">made</text><text x="14.028" y="1.67" class="d">successfully!--</text></symbol><symbol id="16"><text y="1.67" class="d">Choose:</text><text x="8.016" y="1.67" class="d">2</text></symbol><symbol id="17"><text y="1.67" class="d">1.</text><text x="3.006" y="1.67" class="d">This</text><text x="8.016" y="1.67" class="d">is</text><text x="11.022" y="1.67" class="d">a</text><text x="13.026" y="1.67" class="d">sample</text><text x="20.04" y="1.67" class="d">text</text><text x="25.05" y="1.67" class="d">that</text><text x="30.06" y="1.67" class="d">is</text><text x="33.066" y="1.67" class="d">intentionally</text><text x="47.094" y="1.67" class="d">writte...</text></symbol><symbol id="18"><text y="1.67" class="d">created</text><text x="8.016" y="1.67" class="d">at</text><text x="11.022" y="1.67" class="d">-</text><text x="13.026" y="1.67" class="d">26-02-06</text><text x="22.044" y="1.67" class="d">14:58</text></symbol><symbol id="19"><text y="1.67" class="d">--------------------</text></symbol><symbol id="20"><text y="1.67" class="d">2.</text><text x="3.006" y="1.67" class="d">This</text><text x="8.016" y="1.67" class="d">morning,</text><text x="17.034" y="1.67" class="d">when</text><text x="22.044" y="1.67" class="d">I</text><text x="24.048" y="1.67" class="d">woke</text><text x="29.058" y="1.67" class="d">up,</text><text x="33.066" y="1.67" class="d">the</text><text x="37.074" y="1.67" class="d">sunlight</text><text x="46.092" y="1.67" class="d">fell</text><text x="51.102" y="1.67" class="d">ac...</text></symbol><symbol id="21"><text y="1.67" class="d">created</text><text x="8.016" y="1.67" class="d">at</text><text x="11.022" y="1.67" class="d">-</text><text x="13.026" y="1.67" class="d">26-02-06</text><text x="22.044" y="1.67" class="d">18:45</text></symbol><symbol id="22"><text y="1.67" class="d">3.</text><text x="3.006" y="1.67" class="d">During</text><text x="10.02" y="1.67" class="d">my</text><text x="13.026" y="1.67" class="d">afternoon</text><text x="23.046" y="1.67" class="d">walk,</text><text x="29.058" y="1.67" class="d">the</text><text x="33.066" y="1.67" class="d">sound</text><text x="39.078" y="1.67" class="d">of</text><text x="42.084" y="1.67" class="d">birds</text><text x="48.096" y="1.67" class="d">and</text><text x="52.104" y="1.67" class="d">t...</text></symbol><symbol id="23"><text y="1.67" class="d">4.</text><text x="3.006" y="1.67" class="d">Today,</text><text x="10.02" y="1.67" class="d">I</text><text x="12.024" y="1.67" class="d">finally</text><text x="20.04" y="1.67" class="d">completed</text><text x="30.06" y="1.67" class="d">a</text><text x="32.064" y="1.67" class="d">project</text><text x="40.08" y="1.67" class="d">I</text><text x="42.084" y="1.67" class="d">had</text><text x="46.092" y="1.67" class="d">been</text><text x="51.102" y="1.67" class="d">wo...</text></symbol><symbol id="24"><text y="1.67" class="d">created</text><text x="8.016" y="1.67" class="d">at</text><text x="11.022" y="1.67" class="d">-</text><text x="13.026" y="1.67" class="d">26-02-06</text><text x="22.044" y="1.67" class="d">19:05</text></symbol><symbol id="25"><text y="1.67" class="d">5.</text><text x="3.006" y="1.67" class="d">Today,</text><text x="10.02" y="1.67" class="d">I</text><text x="12.024" y="1.67" class="d">finally</text><text x="20.04" y="1.67" class="d">completed</text><text x="30.06" y="1.67" class="d">a</text><text x="32.064" y="1.67" class="d">project</text><text x="40.08" y="1.67" class="d">I</text><text x="42.084" y="1.67" class="d">had</text><text x="46.092" y="1.67" class="d">been</text><text x="51.102" y="1.67" class="d">wo...</text></symbol><symbol id="26"><text y="1.67" class="d">created</text><text x="8.016" y="1.67" class="d">at</text><text x="11.022" y="1.67" class="d">-</text><text x="13.026" y="1.67" class="d">26-02-06</text><text x="22.044" y="1.67" class="d">19:20</text></symbol><symbol id="27"><text y="1.67" class="d">Enter</text><text x="6.012" y="1.67" class="d">memory</text><text x="13.026" y="1.67" class="d">number</text><text x="20.04" y="1.67" class="d">to</text><text x="23.046" y="1.67" class="d">read</text><text x="28.056" y="1.67" class="d">full</text><text x="33.066" y="1.67" class="d">text</text><text x="38.076" y="1.67" class="d">(or</text><text x="42.084" y="1.67" class="d">press</text><text x="48.096" y="1.67" class="d">Enter</text><text x="54.108" y="1.67" class="d">to</text><text x="57.114" y="1.67" class="d">return):</text></symbol><symbol id="28"><text y="1.67" class="d">Choose:</text><text x="8.016" y="1.67" class="d">3</text></symbol><symbol id="29"><text y="1.67" class="d">Total</text><text x="6.012" y="1.67" class="d">memories:</text><text x="16.032" y="1.67" class="d">5</text></symbol><symbol id="30"><text y="1.67" class="d">Average</text><text x="8.016" y="1.67" class="d">memory</text><text x="15.03" y="1.67" class="d">size:</text><text x="21.042" y="1.67" class="d">241</text></symbol><symbol id="31"><text y="1.67" class="d">--Most</text><text x="7.014" y="1.67" class="d">5</text><text x="9.018" y="1.67" class="d">common</text><text x="16.032" y="1.67" class="d">used</text><text x="21.042" y="1.67" class="d">words--</text></symbol><symbol id="32"><text y="1.67" class="d">1-</text><text x="3.006" y="1.67" class="d">i</text></symbol><symbol id="33"><text y="1.67" class="d">2-</text><text x="3.006" y="1.67" class="d">the</text></symbol><symbol id="34"><text y="1.67" class="d">3-</text><text x="3.006" y="1.67" class="d">a</text></symbol><symbol id="35"><text y="1.67" class="d">4-</text><text x="3.006" y="1.67" class="d">and</text></symbol><symbol id="36"><text y="1.67" class="d">5-</text><text x="3.006" y="1.67" class="d">that</text></symbol><symbol id="37"><text y="1.67" class="d">Choose:</text><text x="8.016" y="1.67" class="d">4</text></symbol><symbol id="38"><text y="1.67" class="d">-----Goodbye-----</text></symbol><symbol id="a"><path fill="transparent" d="M0 0h80v21H0z"/></symbol><symbol id="b"><path fill="#6f7683" d="M0 0h1.102v2.171H0z"/></symbol></defs><path class="a" d="M0 0h80v43.42H0z"/><g style="animation-duration:31.807589s;animation-iteration-count:infinite;animation-name:h;animation-timing-function:steps(1,end)"><svg width="5280"><svg><use xlink:href="#a"/><use xlink:href="#b" x="-.004"/></svg><svg x="80"><use xlink:href="#a"/><use xlink:href="#b" x="45.996"/><use xlink:href="#1"/></svg><svg x="160"><use xlink:href="#a"/><use xlink:href="#b" x="46.996"/><text y="1.67" class="c">yasaman@Yasaman</text><text x="15.03" y="1.67" class="d">:</text><text x="16.032" y="1.67" class="e">/mnt/d/minimal</text><text x="31.062" y="1.67" class="e">memory</text><text x="38.076" y="1.67" class="e">logger</text><text x="44.088" y="1.67" class="d">$</text><text x="46.092" y="1.67" class="d">p</text></svg><svg x="240"><use xlink:href="#a"/><use xlink:href="#b" x="47.996"/><text y="1.67" class="c">yasaman@Yasaman</text><text x="15.03" y="1.67" class="d">:</text><text x="16.032" y="1.67" class="e">/mnt/d/minimal</text><text x="31.062" y="1.67" class="e">memory</text><text x="38.076" y="1.67" class="e">logger</text><text x="44.088" y="1.67" class="d">$</text><text x="46.092" y="1.67" class="d">py</text></svg><svg x="320"><use xlink:href="#a"/><use xlink:href="#b" x="48.996"/><text y="1.67" class="c">yasaman@Yasaman</text><text x="15.03" y="1.67" class="d">:</text><text x="16.032" y="1.67" class="e">/mnt/d/minimal</text><text x="31.062" y="1.67" class="e">memory</text><text x="38.076" y="1.67" class="e">logger</text><text x="44.088" y="1.67" class="d">$</text><text x="46.092" y="1.67" class="d">pyt</text></svg><svg x="400"><use xlink:href="#a"/><use xlink:href="#b" x="49.996"/><text y="1.67" class="c">yasaman@Yasaman</text><text x="15.03" y="1.67" class="d">:</text><text x="16.032" y="1.67" class="e">/mnt/d/minimal</text><text x="31.062" y="1.67" class="e">memory</text><text x="38.076" y="1.67" class="e">logger</text><text x="44.088" y="1.67" class="d">$</text><text x="46.092" y="1.67" class="d">pyth</text></svg><svg x="480"><use xlink:href="#a"/><use xlink:href="#b" x="50.996"/><text y="1.67" class="c">yasaman@Yasaman</text><text x="15.03" y="1.67" class="d">:</text><text x="16.032" y="1.67" class="e">/mnt/d/minimal</text><text x="31.062" y="1.67" class="e">memory</text><text x="38.076" y="1.67" class="e">logger</text><text x="44.088" y="1.67" class="d">$</text><text x="46.092" y="1.67" class="d">pytho</text></svg><svg x="560"><use xlink:href="#a"/><use xlink:href="#b" x="51.996"/><use xlink:href="#2"/></svg><svg x="640"><use xlink:href="#a"/><use xlink:href="#b" x="52.996"/><use xlink:href="#2"/></svg><svg x="720"><use xlink:href="#a"/><use xlink:href="#b" x="53.996"/><text y="1.67" class="c">yasaman@Yasaman</text><text x="15.03" y="1.67" class="d">:</text><text x="16.032" y="1.67" class="e">/mnt/d/minimal</text><text x="31.062" y="1.67" class="e">memory</text><text x="38.076" y="1.67" class="e">logger</text><text x="44.088" y="1.67" class="d">$</text><text x="46.092" y="1.67" class="d">python</text><text x="53.106" y="1.67" class="d">-</text></svg><svg x="800"><use xlink:href="#a"/><use xlink:href="#b" x="54.996"/><use xlink:href="#3"/></svg><svg x="880"><use xlink:href="#a"/><use xlink:href="#b" x="55.996"/><use xlink:href="#3"/></svg><svg x="960"><use xlink:href="#a"/><use xlink:href="#b" x="56.996"/><text y="1.67" class="c">yasaman@Yasaman</text><text x="15.03" y="1.67" class="d">:</text><text x="16.032" y="1.67" class="e">/mnt/d/minimal</text><text x="31.062" y="1.67" class="e">memory</text><text x="38.076" y="1.67" class="e">logger</text><text x="44.088" y="1.67" class="d">$</text><text x="46.092" y="1.67" class="d">python</text><text x="53.106" y="1.67" class="d">-m</text><text x="56.112" y="1.67" class="d">m</text></svg><svg x="1040"><use xlink:href="#a"/><use xlink:href="#b" x="57.996"/><text y="1.67" class="c">yasaman@Yasaman</text><text x="15.03" y="1.67" class="d">:</text><text x="16.032" y="1.67" class="e">/mnt/d/minimal</text><text x="31.062" y="1.67" class="e">memory</text><text x="38.076" y="1.67" class="e">logger</text><text x="44.088" y="1.67" class="d">$</text><text x="46.092" y="1.67" class="d">python</text><text x="53.106" y="1.67" class="d">-m</text><text x="56.112" y="1.67" class="d">me</text></svg><svg x="1120"><use xlink:href="#a"/><use xlink:href="#b" x="58.996"/><text y="1.67" class="c">yasaman@Yasaman</text><text x="15.03" y="1.67" class="d">:</text><text x="16.032" y="1.67" class="e">/mnt/d/minimal</text><text x="31.062" y="1.67" class="e">memory</text><text x="38.076" y="1.67" class="e">logger</text><text x="44.088" y="1.67" class="d">$</text><text x="46.092" y="1.67" class="d">python</text><text x="53.106" y="1.67" class="d">-m</text><text x="56.112" y="1.67" class="d">mem</text></svg><svg x="1200"><use xlink:href="#a"/><use xlink:href="#b" x="59.996"/><text y="1.67" class="c">yasaman@Yasaman</text><text x="15.03" y="1.67" class="d">:</text><text x="16.032" y="1.67" class="e">/mnt/d/minimal</text><text x="31.062" y="1.67" class="e">memory</text><text x="38.076" y="1.67" class="e">logger</text><text x="44.088" y="1.67" class="d">$</text><text x="46.092" y="1.67" class="d">python</text><text x="53.106" y="1.67" class="d">-m</text><text x="56.112" y="1.67" class="d">memo</text></svg><svg x="1280"><use xlink:href="#a"/><use xlink:href="#b" x="60.996"/><text y="1.67" class="c">yasaman@Yasaman</text><text x="15.03" y="1.67" class="d">:</text><text x="16.032" y="1.67" class="e">/mnt/d/minimal</text><text x="31.062" y="1.67" class="e">memory</text><text x="38.076" y="1.67" class="e">logger</text><text x="44.088" y="1.67" class="d">$</text><text x="46.092" y="1.67" class="d">python</text><text x="53.106" y="1.67" class="d">-m</text><text x="56.112" y="1.67" class="d">memor</text></svg><svg x="1360"><use xlink:href="#a"/><use xlink:href="#b" x="61.996"/><text y="1.67" class="c">yasaman@Yasaman</text><text x="15.03" y="1.67" class="d">:</text><text x="16.032" y="1.67" class="e">/mnt/d/minimal</text><text x="31.062" y="1.67" class="e">memory</text><text x="38.076" y="1.67" class="e">logger</text><text x="44.088" y="1.67" class="d">$</text><text x="46.092" y="1.67" class="d">python</text><text x="53.106" y="1.67" class="d">-m</text><text x="56.112" y="1.67" class="d">memory</text></svg><svg x="1440"><use xlink:href="#a"/><use xlink:href="#b" x="62.996"/><text y="1.67" class="c">yasaman@Yasaman</text><text x="15.03" y="1.67" class="d">:</text><text x="16.032" y="1.67" class="e">/mnt/d/minimal</text><text x="31.062" y="1.67" class="e">memory</text><text x="38.076" y="1.67" class="e">logger</text><text x="44.088" y="1.67" class="d">$</text><text x="46.092" y="1.67" class="d">python</text><text x="53.106" y="1.67" class="d">-m</text><text x="56.112" y="1.67" class="d">memory_</text></svg><svg x="1520"><use xlink:href="#a"/><use xlink:href="#b" x="63.996"/><text y="1.67" class="c">yasaman@Yasaman</text><text x="15.03" y="1.67" class="d">:</text><text x="16.032" y="1.67" class="e">/mnt/d/minimal</text><text x="31.062" y="1.67" class="e">memory</text><text x="38.076" y="1.67" class="e">logger</text><text x="44.088" y="1.67" class="d">$</text><text x="46.092" y="1.67" class="d">python</text><text x="53.106" y="1.67" class="d">-m</text><text x="56.112" y="1.67" class="d">memory_j</text></svg><svg x="1600"><use xlink:href="#a"/><use xlink:href="#b" x="64.996"/><text y="1.67" class="c">yasaman@Yasaman</text><text x="15.03" y="1.67" class="d">:</text><text x="16.032" y="1.67" class="e">/mnt/d/minimal</text><text x="31.062" y="1.67" class="e">memory</text><text x="38.076" y="1.67" class="e">logger</text><text x="44.088" y="1.67" class="d">$</text><text x="46.092" y="1.67" class="d">python</text><text x="53.106" y="1.67" class="d">-m</text><text x="56.112" y="1.67" class="d">memory_jo</text></svg><svg x="1680"><use xlink:href="#a"/><use xlink:href="#b" x="65.996"/><text y="1.67" class="c">yasaman@Yasaman</text><text x="15.03" y="1.67" class="d">:</text><text x="16.032" y="1.67" class="e">/mnt/d/minimal</text><text x="31.062" y="1.67" class="e">memory</text><text x="38.076" y="1.67" class="e">logger</text><text x="44.088" y="1.67" class="d">$</text><text x="46.092" y="1.67" class="d">python</text><text x="53.106" y="1.67" class="d">-m</text><text x="56.112" y="1.67" class="d">memory_jou</text></svg><svg x="1760"><use xlink:href="#a"/><use xlink:href="#b" x="66.996"/><text y="1.67" class="c">yasaman@Yasaman</text><text x="15.03" y="1.67" class="d">:</text><text x="16.032" y="1.67" class="e">/mnt/d/minimal</text><text x="31.062" y="1.67" class="e">memory</text><text x="38.076" y="1.67" class="e">logger</text><text x="44.088" y="1.67" class="d">$</text><text x="46.092" y="1.67" class="d">python</text><text x="53.106" y="1.67" class="d">-m</text><text x="56.112" y="1.67" class="d">memory_jour</text></svg><svg x="1840"><use xlink:href="#a"/><use xlink:href="#b" x="67.996"/><text y="1.67" class="c">yasaman@Yasaman</text><text x="15.03" y="1.67" class="d">:</text><text x="16.032" y="1.67" class="e">/mnt/d/minimal</text><text x="31.062" y="1.67" class="e">memory</text><text x="38.076" y="1.67" class="e">logger</text><text x="44.088" y="1.67" class="d">$</text><text x="46.092" y="1.67" class="d">python</text><text x="53.106" y="1.67" class="d">-m</text><text x="56.112" y="1.67" class="d">memory_journ</text></svg><svg x="1920"><use xlink:href="#a"/><use xlink:href="#b" x="68.996"/><text y="1.67" class="c">yasaman@Yasaman</text><text x="15.03" y="1.67" class="d">:</text><text x="16.032" y="1.67" class="e">/mnt/d/minimal</text><text x="31.062" y="1.67" class="e">memory</text><text x="38.076" y="1.67" class="e">logger</text><text x="44.088" y="1.67" class="d">$</text><text x="46.092" y="1.67" class="d">python</text><text x="53.106" y="1.67" class="d">-m</text><text x="56.112" y="1.67" class="d">memory_journa</text></svg><svg x="2000"><use xlink:href="#a"/><use xlink:href="#b" x="69.996"/><text y="1.67" class="c">yasaman@Yasaman</text><text x="15.03" y="1.67" class="d">:</text><text x="16.032" y="1.67" class="e">/mnt/d/minimal</text><text x="31.062" y="1.67" class="e">memory</text><text x="38.076" y="1.67" class="e">logger</text><text x="44.088" y="1.67" class="d">$</text><text x="46.092" y="1.67" class="d">python</text><text x="53.106" y="1.67" class="d">-m</text><text x="56.112" y="1.67" class="d">memory_journal</text></svg><svg x="2080"><use xlink:href="#a"/><use xlink:href="#b" x="70.996"/><text y="1.67" class="c">yasaman@Yasaman</text><text x="15.03" y="1.67" class="d">:</text><text x="16.032" y="1.67" class="e">/mnt/d/minimal</text><text x="31.062" y="1.67" class="e">memory</text><text x="38.076" y="1.67" class="e">logger</text><text x="44.088" y="1.67" class="d">$</text><text x="46.092" y="1.67" class="d">python</text><text x="53.106" y="1.67" class="d">-m</text><text x="56.112" y="1.67" class="d">memory_journal.</text></svg><svg x="2160"><use xlink:href="#a"/><use xlink:href="#b" x="71.996"/><text y="1.67" class="c">yasaman@Yasaman</text><text x="15.03" y="1.67" class="d">:</text><text x="16.032" y="1.67" class="e">/mnt/d/minimal</text><text x="31.062" y="1.67" class="e">memory</text><text x="38.076" y="1.67" class="e">logger</text><text x="44.088" y="1.67" class="d">$</text><text x="46.092" y="1.67" class="d">python</text><text x="53.106" y="1.67" class="d">-m</text><text x="56.112" y="1.67" class="d">memory_journal.m</text></svg><svg x="2240"><use xlink:href="#a"/><use xlink:href="#b" x="72.996"/><text y="1.67" class="c">yasaman@Yasaman</text><text x="15.03" y="1.67" class="d">:</text><text x="16.032" y="1.67" class="e">/mnt/d/minimal</text><text x="31.062" y="1.67" class="e">memory</text><text x="38.076" y="1.67" class="e">logger</text><text x="44.088" y="1.67" class="d">$</text><text x="46.092" y="1.67" class="d">python</text><text x="53.106" y="1.67" class="d">-m</text><text x="56.112" y="1.67" class="d">memory_journal.ma</text></svg><svg x="2320"><use xlink:href="#a"/><use xlink:href="#b" x="73.996"/><text y="1.67" class="c">yasaman@Yasaman</text><text x="15.03" y="1.67" class="d">:</text><text x="16.032" y="1.67" class="e">/mnt/d/minimal</text><text x="31.062" y="1.67" class="e">memory</text><text x="38.076" y="1.67" class="e">logger</text><text x="44.088" y="1.67" class="d">$</text><text x="46.092" y="1.67" class="d">python</text><text x="53.106" y="1.67" class="d">-m</text><text x="56.112" y="1.67" class="d">memory_journal.mai</text></svg><svg x="2400"><use xlink:href="#a"/><use xlink:href="#b" x="74.996"/><use xlink:href="#4"/></svg><svg x="2480"><use xlink:href="#a"/><use xlink:href="#b" x="-.004" y="2.146"/><use xlink:href="#4"/></svg><svg x="2560"><use xlink:href="#a"/><use xlink:href="#b" x="7.996" y="15.172"/><use xlink:href="#4"/><use xlink:href="#5" y="4.342"/><use xlink:href="#6" y="6.513"/><use xlink:href="#7" y="8.684"/><use xlink:href="#8" y="10.855"/><use xlink:href="#9" y="15.197"/></svg><svg x="2640"><use xlink:href="#a"/><use xlink:href="#b" x="8.996" y="15.172"/><use xlink:href="#4"/><use xlink:href="#5" y="4.342"/><use xlink:href="#6" y="6.513"/><use xlink:href="#7" y="8.684"/><use xlink:href="#8" y="10.855"/><use xlink:href="#10" y="15.197"/></svg><svg x="2720"><use xlink:href="#a"/><use xlink:href="#b" x=".996" y="19.514"/><use xlink:href="#4"/><use xlink:href="#5" y="4.342"/><use xlink:href="#6" y="6.513"/><use xlink:href="#7" y="8.684"/><use xlink:href="#8" y="10.855"/><use xlink:href="#10" y="15.197"/><use xlink:href="#11" y="17.368"/></svg><svg x="2800"><use xlink:href="#a"/><use xlink:href="#b" x="16.996" y="19.514"/><use xlink:href="#4"/><use xlink:href="#5" y="4.342"/><use xlink:href="#6" y="6.513"/><use xlink:href="#7" y="8.684"/><use xlink:href="#8" y="10.855"/><use xlink:href="#10" y="15.197"/><use xlink:href="#11" y="17.368"/><text x="1.002" y="21.209" class="d">Today,</text><text x="8.016" y="21.209" class="d">I</text><text x="10.02" y="21.209" class="d">finally</text></svg><svg x="2880"><use xlink:href="#a"/><use xlink:href="#b" x="32.996" y="19.514"/><use xlink:href="#4"/><use xlink:href="#5" y="4.342"/><use xlink:href="#6" y="6.513"/><use xlink:href="#7" y="8.684"/><use xlink:href="#8" y="10.855"/><use xlink:href="#10" y="15.197"/><use xlink:href="#11" y="17.368"/><text x="1.002" y="21.209" class="d">Today,</text><text x="8.016" y="21.209" class="d">I</text><text x="10.02" y="21.209" class="d">finally</text><text x="18.036" y="21.209" class="d">completed</text><text x="28.056" y="21.209" class="d">a</text><text x="30.06" y="21.209" class="d">pro</text></svg><svg x="2960"><use xlink:href="#a"/><use xlink:href="#b" x="48.996" y="19.514"/><use xlink:href="#4"/><use xlink:href="#5" y="4.342"/><use xlink:href="#6" y="6.513"/><use xlink:href="#7" y="8.684"/><use xlink:href="#8" y="10.855"/><use xlink:href="#10" y="15.197"/><use xlink:href="#11" y="17.368"/><text x="1.002" y="21.209" class="d">Today,</text><text x="8.016" y="21.209" class="d">I</text><text x="10.02" y="21.209" class="d">finally</text><text x="18.036" y="21.209" class="d">completed</text><text x="28.056" y="21.209" class="d">a</text><text x="30.06" y="21.209" class="d">project</text><text x="38.076" y="21.209" class="d">I</text><text x="40.08" y="21.209" class="d">had</text><text x="44.088" y="21.209" class="d">been</text></svg><svg x="3040"><use xlink:href="#a"/><use xlink:href="#b" x="64.996" y="19.514"/><use xlink:href="#4"/><use xlink:href="#5" y="4.342"/><use xlink:href="#6" y="6.513"/><use xlink:href="#7" y="8.684"/><use xlink:href="#8" y="10.855"/><use xlink:href="#10" y="15.197"/><use xlink:href="#11" y="17.368"/><text x="1.002" y="21.209" class="d">Today,</text><text x="8.016" y="21.209" class="d">I</text><text x="10.02" y="21.209" class="d">finally</text><text x="18.036" y="21.209" class="d">completed</text><text x="28.056" y="21.209" class="d">a</text><text x="30.06" y="21.209" class="d">project</text><text x="38.076" y="21.209" class="d">I</text><text x="40.08" y="21.209" class="d">had</text><text x="44.088" y="21.209" class="d">been</text><text x="49.098" y="21.209" class="d">working</text><text x="57.114" y="21.209" class="d">on</text><text x="60.12" y="21.209" class="d">for</text><text x="64.128" y="21.209" class="d">a</text></svg><svg x="3120"><use xlink:href="#a"/><use xlink:href="#b" x=".996" y="21.685"/><use xlink:href="#4"/><use xlink:href="#5" y="4.342"/><use xlink:href="#6" y="6.513"/><use xlink:href="#7" y="8.684"/><use xlink:href="#8" y="10.855"/><use xlink:href="#10" y="15.197"/><use xlink:href="#11" y="17.368"/><use xlink:href="#12" y="19.539"/><text y="23.38" class="d">t</text></svg><svg x="3200"><use xlink:href="#a"/><use xlink:href="#b" x="16.996" y="21.685"/><use xlink:href="#4"/><use xlink:href="#5" y="4.342"/><use xlink:href="#6" y="6.513"/><use xlink:href="#7" y="8.684"/><use xlink:href="#8" y="10.855"/><use xlink:href="#10" y="15.197"/><use xlink:href="#11" y="17.368"/><use xlink:href="#12" y="19.539"/><text y="23.38" class="d">that</text><text x="5.01" y="23.38" class="d">all</text><text x="9.018" y="23.38" class="d">the</text><text x="13.026" y="23.38" class="d">fati</text></svg><svg x="3280"><use xlink:href="#a"/><use xlink:href="#b" x="32.996" y="21.685"/><use xlink:href="#4"/><use xlink:href="#5" y="4.342"/><use xlink:href="#6" y="6.513"/><use xlink:href="#7" y="8.684"/><use xlink:href="#8" y="10.855"/><use xlink:href="#10" y="15.197"/><use xlink:href="#11" y="17.368"/><use xlink:href="#12" y="19.539"/><text y="23.38" class="d">that</text><text x="5.01" y="23.38" class="d">all</text><text x="9.018" y="23.38" class="d">the</text><text x="13.026" y="23.38" class="d">fatigue</text><text x="21.042" y="23.38" class="d">and</text><text x="25.05" y="23.38" class="d">worries</text></svg><svg x="3360"><use xlink:href="#a"/><use xlink:href="#b" x="48.996" y="21.685"/><use xlink:href="#4"/><use xlink:href="#5" y="4.342"/><use xlink:href="#6" y="6.513"/><use xlink:href="#7" y="8.684"/><use xlink:href="#8" y="10.855"/><use xlink:href="#10" y="15.197"/><use xlink:href="#11" y="17.368"/><use xlink:href="#12" y="19.539"/><text y="23.38" class="d">that</text><text x="5.01" y="23.38" class="d">all</text><text x="9.018" y="23.38" class="d">the</text><text x="13.026" y="23.38" class="d">fatigue</text><text x="21.042" y="23.38" class="d">and</text><text x="25.05" y="23.38" class="d">worries</text><text x="33.066" y="23.38" class="d">were</text><text x="38.076" y="23.38" class="d">worth</text><text x="44.088" y="23.38" class="d">it.</text><text x="48.096" y="23.38" class="d">I</text></svg><svg x="3440"><use xlink:href="#a"/><use xlink:href="#b" x="64.996" y="21.685"/><use xlink:href="#4"/><use xlink:href="#5" y="4.342"/><use xlink:href="#6" y="6.513"/><use xlink:href="#7" y="8.684"/><use xlink:href="#8" y="10.855"/><use xlink:href="#10" y="15.197"/><use xlink:href="#11" y="17.368"/><use xlink:href="#12" y="19.539"/><text y="23.38" class="d">that</text><text x="5.01" y="23.38" class="d">all</text><text x="9.018" y="23.38" class="d">the</text><text x="13.026" y="23.38" class="d">fatigue</text><text x="21.042" y="23.38" class="d">and</text><text x="25.05" y="23.38" class="d">worries</text><text x="33.066" y="23.38" class="d">were</text><text x="38.076" y="23.38" class="d">worth</text><text x="44.088" y="23.38" class="d">it.</text><text x="48.096" y="23.38" class="d">I</text><text x="50.1" y="23.38" class="d">wrote</text><text x="56.112" y="23.38" class="d">it</text><text x="59.118" y="23.38" class="d">down</text><text x="64.128" y="23.38" class="d">t</text></svg><svg x="3520"><use xlink:href="#a"/><use xlink:href="#b" x=".996" y="23.856"/><use xlink:href="#4"/><use xlink:href="#5" y="4.342"/><use xlink:href="#6" y="6.513"/><use xlink:href="#7" y="8.684"/><use xlink:href="#8" y="10.855"/><use xlink:href="#10" y="15.197"/><use xlink:href="#11" y="17.368"/><use xlink:href="#12" y="19.539"/><use xlink:href="#13" y="21.71"/></svg><svg x="3600"><use xlink:href="#a"/><use xlink:href="#b" x="16.996" y="23.856"/><use xlink:href="#4"/><use xlink:href="#5" y="4.342"/><use xlink:href="#6" y="6.513"/><use xlink:href="#7" y="8.684"/><use xlink:href="#8" y="10.855"/><use xlink:href="#10" y="15.197"/><use xlink:href="#11" y="17.368"/><use xlink:href="#12" y="19.539"/><use xlink:href="#13" y="21.71"/><text x="1.002" y="25.551" class="d">that</text><text x="6.012" y="25.551" class="d">even</text><text x="11.022" y="25.551" class="d">when</text><text x="16.032" y="25.551" class="d">I</text></svg><svg x="3680"><use xlink:href="#a"/><use xlink:href="#b" x="32.996" y="23.856"/><use xlink:href="#4"/><use xlink:href="#5" y="4.342"/><use xlink:href="#6" y="6.513"/><use xlink:href="#7" y="8.684"/><use xlink:href="#8" y="10.855"/><use xlink:href="#10" y="15.197"/><use xlink:href="#11" y="17.368"/><use xlink:href="#12" y="19.539"/><use xlink:href="#13" y="21.71"/><text x="1.002" y="25.551" class="d">that</text><text x="6.012" y="25.551" class="d">even</text><text x="11.022" y="25.551" class="d">when</text><text x="16.032" y="25.551" class="d">I</text><text x="18.036" y="25.551" class="d">feel</text><text x="23.046" y="25.551" class="d">overwhelme</text></svg><svg x="3760"><use xlink:href="#a"/><use xlink:href="#b" x="48.996" y="23.856"/><use xlink:href="#4"/><use xlink:href="#5" y="4.342"/><use xlink:href="#6" y="6.513"/><use xlink:href="#7" y="8.684"/><use xlink:href="#8" y="10.855"/><use xlink:href="#10" y="15.197"/><use xlink:href="#11" y="17.368"/><use xlink:href="#12" y="19.539"/><use xlink:href="#13" y="21.71"/><text x="1.002" y="25.551" class="d">that</text><text x="6.012" y="25.551" class="d">even</text><text x="11.022" y="25.551" class="d">when</text><text x="16.032" y="25.551" class="d">I</text><text x="18.036" y="25.551" class="d">feel</text><text x="23.046" y="25.551" class="d">overwhelmed,</text><text x="36.072" y="25.551" class="d">persistence</text><text x="48.096" y="25.551" class="d">a</text></svg><svg x="3840"><use xlink:href="#a"/><use xlink:href="#b" x="64.996" y="23.856"/><use xlink:href="#4"/><use xlink:href="#5" y="4.342"/><use xlink:href="#6" y="6.513"/><use xlink:href="#7" y="8.684"/><use xlink:href="#8" y="10.855"/><use xlink:href="#10" y="15.197"/><use xlink:href="#11" y="17.368"/><use xlink:href="#12" y="19.539"/><use xlink:href="#13" y="21.71"/><text x="1.002" y="25.551" class="d">that</text><text x="6.012" y="25.551" class="d">even</text><text x="11.022" y="25.551" class="d">when</text><text x="16.032" y="25.551" class="d">I</text><text x="18.036" y="25.551" class="d">feel</text><text x="23.046" y="25.551" class="d">overwhelmed,</text><text x="36.072" y="25.551" class="d">persistence</text><text x="48.096" y="25.551" class="d">and</text><text x="52.104" y="25.551" class="d">effort</text><text x="59.118" y="25.551" class="d">pay</text><text x="63.126" y="25.551" class="d">of</text></svg><svg x="3920"><use xlink:href="#a"/><use xlink:href="#b" x="66.996" y="23.856"/><use xlink:href="#4"/><use xlink:href="#5" y="4.342"/><use xlink:href="#6" y="6.513"/><use xlink:href="#7" y="8.684"/><use xlink:href="#8" y="10.855"/><use xlink:href="#10" y="15.197"/><use xlink:href="#11" y="17.368"/><use xlink:href="#12" y="19.539"/><use xlink:href="#13" y="21.71"/><use xlink:href="#14" y="23.881"/></svg><svg x="4000"><use xlink:href="#a"/><use xlink:href="#b" x="-.004" y="26.027"/><use xlink:href="#4"/><use xlink:href="#5" y="4.342"/><use xlink:href="#6" y="6.513"/><use xlink:href="#7" y="8.684"/><use xlink:href="#8" y="10.855"/><use xlink:href="#10" y="15.197"/><use xlink:href="#11" y="17.368"/><use xlink:href="#12" y="19.539"/><use xlink:href="#13" y="21.71"/><use xlink:href="#14" y="23.881"/></svg><svg x="4080"><use xlink:href="#a"/><use xlink:href="#b" x="7.996" y="41.224"/><use xlink:href="#4"/><use xlink:href="#5" y="4.342"/><use xlink:href="#6" y="6.513"/><use xlink:href="#7" y="8.684"/><use xlink:href="#8" y="10.855"/><use xlink:href="#10" y="15.197"/><use xlink:href="#11" y="17.368"/><use xlink:href="#12" y="19.539"/><use xlink:href="#13" y="21.71"/><use xlink:href="#14" y="23.881"/><use xlink:href="#15" y="26.052"/><use xlink:href="#5" y="30.394"/><use xlink:href="#6" y="32.565"/><use xlink:href="#7" y="34.736"/><use xlink:href="#8" y="36.907"/><use xlink:href="#9" y="41.249"/></svg><svg x="4160"><use xlink:href="#a"/><use xlink:href="#b" x="8.996" y="41.224"/><use xlink:href="#4"/><use xlink:href="#5" y="4.342"/><use xlink:href="#6" y="6.513"/><use xlink:href="#7" y="8.684"/><use xlink:href="#8" y="10.855"/><use xlink:href="#10" y="15.197"/><use xlink:href="#11" y="17.368"/><use xlink:href="#12" y="19.539"/><use xlink:href="#13" y="21.71"/><use xlink:href="#14" y="23.881"/><use xlink:href="#15" y="26.052"/><use xlink:href="#5" y="30.394"/><use xlink:href="#6" y="32.565"/><use xlink:href="#7" y="34.736"/><use xlink:href="#8" y="36.907"/><use xlink:href="#16" y="41.249"/></svg><svg x="4240"><use xlink:href="#a"/><use xlink:href="#b" x="-.004" y="43.395"/><use xlink:href="#4"/><use xlink:href="#5" y="4.342"/><use xlink:href="#6" y="6.513"/><use xlink:href="#7" y="8.684"/><use xlink:href="#8" y="10.855"/><use xlink:href="#10" y="15.197"/><use xlink:href="#11" y="17.368"/><use xlink:href="#12" y="19.539"/><use xlink:href="#13" y="21.71"/><use xlink:href="#14" y="23.881"/><use xlink:href="#15" y="26.052"/><use xlink:href="#5" y="30.394"/><use xlink:href="#6" y="32.565"/><use xlink:href="#7" y="34.736"/><use xlink:href="#8" y="36.907"/><use xlink:href="#16" y="41.249"/></svg><svg x="4320"><use xlink:href="#a"/><use xlink:href="#b" x="-.004" y="43.395"/><use xlink:href="#6"/><use xlink:href="#7" y="2.171"/><use xlink:href="#8" y="4.342"/><use xlink:href="#10" y="8.684"/><use xlink:href="#11" y="10.855"/><use xlink:href="#12" y="13.026"/><use xlink:href="#13" y="15.197"/><use xlink:href="#14" y="17.368"/><use xlink:href="#15" y="19.539"/><use xlink:href="#5" y="23.881"/><use xlink:href="#6" y="26.052"/><use xlink:href="#7" y="28.223"/><use xlink:href="#8" y="30.394"/><use xlink:href="#16" y="34.736"/><use xlink:href="#17" y="36.907"/><use xlink:href="#18" y="39.078"/><use xlink:href="#19" y="41.249"/></svg><svg x="4400"><use xlink:href="#a"/><use xlink:href="#b" x="65.996" y="43.395"/><use xlink:href="#7"/><use xlink:href="#8" y="2.171"/><use xlink:href="#16" y="6.513"/><use xlink:href="#17" y="8.684"/><use xlink:href="#18" y="10.855"/><use xlink:href="#19" y="13.026"/><use xlink:href="#20" y="15.197"/><use xlink:href="#21" y="17.368"/><use xlink:href="#19" y="19.539"/><use xlink:href="#22" y="21.71"/><use xlink:href="#21" y="23.881"/><use xlink:href="#19" y="26.052"/><use xlink:href="#23" y="28.223"/><use xlink:href="#24" y="30.394"/><use xlink:href="#19" y="32.565"/><use xlink:href="#25" y="34.736"/><use xlink:href="#26" y="36.907"/><use xlink:href="#19" y="39.078"/><use xlink:href="#27" y="43.42"/></svg><svg x="4480"><use xlink:href="#a"/><use xlink:href="#b" x="-.004" y="43.395"/><use xlink:href="#8"/><use xlink:href="#16" y="4.342"/><use xlink:href="#17" y="6.513"/><use xlink:href="#18" y="8.684"/><use xlink:href="#19" y="10.855"/><use xlink:href="#20" y="13.026"/><use xlink:href="#21" y="15.197"/><use xlink:href="#19" y="17.368"/><use xlink:href="#22" y="19.539"/><use xlink:href="#21" y="21.71"/><use xlink:href="#19" y="23.881"/><use xlink:href="#23" y="26.052"/><use xlink:href="#24" y="28.223"/><use xlink:href="#19" y="30.394"/><use xlink:href="#25" y="32.565"/><use xlink:href="#26" y="34.736"/><use xlink:href="#19" y="36.907"/><use xlink:href="#27" y="41.249"/></svg><svg x="4560"><use xlink:href="#a"/><use xlink:href="#b" x="7.996" y="43.395"/><use xlink:href="#20"/><use xlink:href="#21" y="2.171"/><use xlink:href="#19" y="4.342"/><use xlink:href="#22" y="6.513"/><use xlink:href="#21" y="8.684"/><use xlink:href="#19" y="10.855"/><use xlink:href="#23" y="13.026"/><use xlink:href="#24" y="15.197"/><use xlink:href="#19" y="17.368"/><use xlink:href="#25" y="19.539"/><use xlink:href="#26" y="21.71"/><use xlink:href="#19" y="23.881"/><use xlink:href="#27" y="28.223"/><use xlink:href="#5" y="32.565"/><use xlink:href="#6" y="34.736"/><use xlink:href="#7" y="36.907"/><use xlink:href="#8" y="39.078"/><use xlink:href="#9" y="43.42"/></svg><svg x="4640"><use xlink:href="#a"/><use xlink:href="#b" x="8.996" y="43.395"/><use xlink:href="#20"/><use xlink:href="#21" y="2.171"/><use xlink:href="#19" y="4.342"/><use xlink:href="#22" y="6.513"/><use xlink:href="#21" y="8.684"/><use xlink:href="#19" y="10.855"/><use xlink:href="#23" y="13.026"/><use xlink:href="#24" y="15.197"/><use xlink:href="#19" y="17.368"/><use xlink:href="#25" y="19.539"/><use xlink:href="#26" y="21.71"/><use xlink:href="#19" y="23.881"/><use xlink:href="#27" y="28.223"/><use xlink:href="#5" y="32.565"/><use xlink:href="#6" y="34.736"/><use xlink:href="#7" y="36.907"/><use xlink:href="#8" y="39.078"/><use xlink:href="#28" y="43.42"/></svg><svg x="4720"><use xlink:href="#a"/><use xlink:href="#b" x="-.004" y="43.395"/><use xlink:href="#21"/><use xlink:href="#19" y="2.171"/><use xlink:href="#22" y="4.342"/><use xlink:href="#21" y="6.513"/><use xlink:href="#19" y="8.684"/><use xlink:href="#23" y="10.855"/><use xlink:href="#24" y="13.026"/><use xlink:href="#19" y="15.197"/><use xlink:href="#25" y="17.368"/><use xlink:href="#26" y="19.539"/><use xlink:href="#19" y="21.71"/><use xlink:href="#27" y="26.052"/><use xlink:href="#5" y="30.394"/><use xlink:href="#6" y="32.565"/><use xlink:href="#7" y="34.736"/><use xlink:href="#8" y="36.907"/><use xlink:href="#28" y="41.249"/></svg><svg x="4800"><use xlink:href="#a"/><use xlink:href="#b" x="7.996" y="43.395"/><use xlink:href="#6"/><use xlink:href="#7" y="2.171"/><use xlink:href="#8" y="4.342"/><use xlink:href="#28" y="8.684"/><use xlink:href="#29" y="10.855"/><use xlink:href="#30" y="13.026"/><use xlink:href="#31" y="15.197"/><use xlink:href="#32" y="17.368"/><use xlink:href="#33" y="19.539"/><use xlink:href="#34" y="21.71"/><use xlink:href="#35" y="23.881"/><use xlink:href="#36" y="26.052"/><use xlink:href="#19" y="28.223"/><use xlink:href="#5" y="32.565"/><use xlink:href="#6" y="34.736"/><use xlink:href="#7" y="36.907"/><use xlink:href="#8" y="39.078"/><use xlink:href="#9" y="43.42"/></svg><svg x="4880"><use xlink:href="#a"/><use xlink:href="#b" x="8.996" y="43.395"/><use xlink:href="#6"/><use xlink:href="#7" y="2.171"/><use xlink:href="#8" y="4.342"/><use xlink:href="#28" y="8.684"/><use xlink:href="#29" y="10.855"/><use xlink:href="#30" y="13.026"/><use xlink:href="#31" y="15.197"/><use xlink:href="#32" y="17.368"/><use xlink:href="#33" y="19.539"/><use xlink:href="#34" y="21.71"/><use xlink:href="#35" y="23.881"/><use xlink:href="#36" y="26.052"/><use xlink:href="#19" y="28.223"/><use xlink:href="#5" y="32.565"/><use xlink:href="#6" y="34.736"/><use xlink:href="#7" y="36.907"/><use xlink:href="#8" y="39.078"/><use xlink:href="#37" y="43.42"/></svg><svg x="4960"><use xlink:href="#a"/><use xlink:href="#b" x="-.004" y="43.395"/><use xlink:href="#7"/><use xlink:href="#8" y="2.171"/><use xlink:href="#28" y="6.513"/><use xlink:href="#29" y="8.684"/><use xlink:href="#30" y="10.855"/><use xlink:href="#31" y="13.026"/><use xlink:href="#32" y="15.197"/><use xlink:href="#33" y="17.368"/><use xlink:href="#34" y="19.539"/><use xlink:href="#35" y="21.71"/><use xlink:href="#36" y="23.881"/><use xlink:href="#19" y="26.052"/><use xlink:href="#5" y="30.394"/><use xlink:href="#6" y="32.565"/><use xlink:href="#7" y="34.736"/><use xlink:href="#8" y="36.907"/><use xlink:href="#37" y="41.249"/></svg><svg x="5040"><use xlink:href="#a"/><use xlink:href="#b" x="-.004" y="43.395"/><use xlink:href="#8"/><use xlink:href="#28" y="4.342"/><use xlink:href="#29" y="6.513"/><use xlink:href="#30" y="8.684"/><use xlink:href="#31" y="10.855"/><use xlink:href="#32" y="13.026"/><use xlink:href="#33" y="15.197"/><use xlink:href="#34" y="17.368"/><use xlink:href="#35" y="19.539"/><use xlink:href="#36" y="21.71"/><use xlink:href="#19" y="23.881"/><use xlink:href="#5" y="28.223"/><use xlink:href="#6" y="30.394"/><use xlink:href="#7" y="32.565"/><use xlink:href="#8" y="34.736"/><use xlink:href="#37" y="39.078"/><use xlink:href="#38" y="41.249"/></svg><svg x="5120"><use xlink:href="#a"/><use xlink:href="#b" x="45.996" y="43.395"/><use xlink:href="#8"/><use xlink:href="#28" y="4.342"/><use xlink:href="#29" y="6.513"/><use xlink:href="#30" y="8.684"/><use xlink:href="#31" y="10.855"/><use xlink:href="#32" y="13.026"/><use xlink:href="#33" y="15.197"/><use xlink:href="#34" y="17.368"/><use xlink:href="#35" y="19.539"/><use xlink:href="#36" y="21.71"/><use xlink:href="#19" y="23.881"/><use xlink:href="#5" y="28.223"/><use xlink:href="#6" y="30.394"/><use xlink:href="#7" y="32.565"/><use xlink:href="#8" y="34.736"/><use xlink:href="#37" y="39.078"/><use xlink:href="#38" y="41.249"/><use xlink:href="#1" y="43.42"/></svg><svg x="5200"><use xlink:href="#a"/><use xlink:href="#b" x="-.004" y="43.395"/><use xlink:href="#28"/><use xlink:href="#29" y="2.171"/><use xlink:href="#30" y="4.342"/><use xlink:href="#31" y="6.513"/><use xlink:href="#32" y="8.684"/><use xlink:href="#33" y="10.855"/><use xlink:href="#34" y="13.026"/><use xlink:href="#35" y="15.197"/><use xlink:href="#36" y="17.368"/><use xlink:href="#19" y="19.539"/><use xlink:href="#5" y="23.881"/><use xlink:href="#6" y="26.052"/><use xlink:href="#7" y="28.223"/><use xlink:href="#8" y="30.394"/><use xlink:href="#37" y="34.736"/><use xlink:href="#38" y="36.907"/><use xlink:href="#1" y="39.078"/><text y="42.919" class="d">exit</text></svg></svg></g></g></svg></svg>